<svg width="300" height="300" viewBox="0 0 300 300" fill="none" xmlns="http://www.w3.org/2000/svg">
<g clip-path="url(#clip0_38_104)">
<rect width="110" height="50" rx="8" transform="matrix(-1 0 0 1 171 95.5)" fill="#464646"/>
</g>
<g clip-path="url(#clip1_38_104)">
<rect width="110" height="50" rx="8" transform="matrix(-1 0 0 1 239 150.5)" fill="#464646"/>
</g>
<g clip-path="url(#clip2_38_104)">
<rect width="110" height="50" rx="8" transform="matrix(-1 0 0 1 239 40.5)" fill="#464646"/>
</g>
<path d="M57.293 265.5H46.4824V227.32H58.084C68.8418 227.32 75.2754 234.439 75.2754 246.305C75.2227 258.381 68.6836 265.5 57.293 265.5ZM49.2246 262.969H57.1875C67.207 262.969 72.5859 256.746 72.5859 246.305C72.5332 236.021 67.3652 229.799 57.9258 229.799H49.2246V262.969ZM108.814 227.32H111.557V252.58C111.557 260.385 105.65 266.133 97.3184 266.133C88.9863 266.133 83.0801 260.385 83.0801 252.58V227.32H85.8223V252.422C85.8223 258.803 90.5156 263.496 97.3184 263.496C104.121 263.496 108.814 258.803 108.814 252.422V227.32ZM151.951 246.41C151.951 258.275 145.254 266.027 135.709 266.027C126.111 266.027 119.414 258.223 119.414 246.41C119.414 234.545 126.111 226.793 135.709 226.793C145.254 226.793 151.951 234.545 151.951 246.41ZM149.262 246.41C149.262 235.916 143.619 229.377 135.709 229.377C127.799 229.377 122.104 235.863 122.104 246.41C122.104 256.852 127.746 263.391 135.709 263.391C143.619 263.391 149.314 256.904 149.262 246.41ZM159.809 265.5V227.32H162.551V262.969H181.061V265.5H159.809ZM217.5 246.41C217.5 258.275 210.803 266.027 201.258 266.027C191.66 266.027 184.963 258.223 184.963 246.41C184.963 234.545 191.66 226.793 201.258 226.793C210.803 226.793 217.5 234.545 217.5 246.41ZM214.811 246.41C214.811 235.916 209.168 229.377 201.258 229.377C193.348 229.377 187.652 235.863 187.652 246.41C187.652 256.852 193.295 263.391 201.258 263.391C209.168 263.391 214.863 256.904 214.811 246.41ZM251.988 239.238C250.775 234.176 246.504 229.377 239.701 229.377C231.844 229.377 226.201 235.863 226.201 246.41C226.201 256.852 231.791 263.391 239.912 263.391C247.189 263.391 252.305 258.328 252.41 249.891H240.598V247.412H255.1V249.838C255.1 259.857 248.719 266.027 239.912 266.027C230.051 266.027 223.512 258.275 223.512 246.41C223.512 234.492 230.104 226.793 239.701 226.793C248.244 226.793 253.676 232.963 254.836 239.238H251.988Z" fill="#464646"/>
<defs>
<clipPath id="clip0_38_104">
<rect width="110" height="50" rx="8" transform="matrix(-1 0 0 1 171 95.5)" fill="white"/>
</clipPath>
<clipPath id="clip1_38_104">
<rect width="110" height="50" rx="8" transform="matrix(-1 0 0 1 239 150.5)" fill="white"/>
</clipPath>
<clipPath id="clip2_38_104">
<rect width="110" height="50" rx="8" transform="matrix(-1 0 0 1 239 40.5)" fill="white"/>
</clipPath>
</defs>
</svg>
