<svg width="847" height="300" viewBox="0 0 847 300" fill="none" xmlns="http://www.w3.org/2000/svg">
<g clip-path="url(#clip0_56_250)">
<rect width="110" height="50" rx="8" transform="matrix(-1 0 0 1 128 125)" fill="#464646"/>
</g>
<g clip-path="url(#clip1_56_250)">
<rect width="110" height="50" rx="8" transform="matrix(-1 0 0 1 196 180)" fill="#464646"/>
</g>
<g clip-path="url(#clip2_56_250)">
<rect width="110" height="50" rx="8" transform="matrix(-1 0 0 1 196 70)" fill="#464646"/>
</g>
<path d="M280.98 203H250.951V96.9453H283.178C313.061 96.9453 330.932 116.721 330.932 149.68C330.785 183.225 312.621 203 280.98 203ZM258.568 195.969H280.688C308.52 195.969 323.461 178.684 323.461 149.68C323.314 121.115 308.959 103.83 282.738 103.83H258.568V195.969ZM424.096 96.9453H431.713V167.111C431.713 188.791 415.307 204.758 392.162 204.758C369.018 204.758 352.611 188.791 352.611 167.111V96.9453H360.229V166.672C360.229 184.396 373.266 197.434 392.162 197.434C411.059 197.434 424.096 184.396 424.096 166.672V96.9453ZM543.92 149.973C543.92 182.932 525.316 204.465 498.803 204.465C472.143 204.465 453.539 182.785 453.539 149.973C453.539 117.014 472.143 95.4805 498.803 95.4805C525.316 95.4805 543.92 117.014 543.92 149.973ZM536.449 149.973C536.449 120.822 520.775 102.658 498.803 102.658C476.83 102.658 461.01 120.676 461.01 149.973C461.01 178.977 476.684 197.141 498.803 197.141C520.775 197.141 536.596 179.123 536.449 149.973ZM565.746 203V96.9453H573.363V195.969H624.779V203H565.746ZM726 149.973C726 182.932 707.396 204.465 680.883 204.465C654.223 204.465 635.619 182.785 635.619 149.973C635.619 117.014 654.223 95.4805 680.883 95.4805C707.396 95.4805 726 117.014 726 149.973ZM718.529 149.973C718.529 120.822 702.855 102.658 680.883 102.658C658.91 102.658 643.09 120.676 643.09 149.973C643.09 178.977 658.764 197.141 680.883 197.141C702.855 197.141 718.676 179.123 718.529 149.973ZM821.801 130.051C818.432 115.988 806.566 102.658 787.67 102.658C765.844 102.658 750.17 120.676 750.17 149.973C750.17 178.977 765.697 197.141 788.256 197.141C808.471 197.141 822.68 183.078 822.973 159.641H790.16V152.756H830.443V159.494C830.443 187.326 812.719 204.465 788.256 204.465C760.863 204.465 742.699 182.932 742.699 149.973C742.699 116.867 761.01 95.4805 787.67 95.4805C811.4 95.4805 826.488 112.619 829.711 130.051H821.801Z" fill="#464646"/>
<defs>
<clipPath id="clip0_56_250">
<rect width="110" height="50" rx="8" transform="matrix(-1 0 0 1 128 125)" fill="white"/>
</clipPath>
<clipPath id="clip1_56_250">
<rect width="110" height="50" rx="8" transform="matrix(-1 0 0 1 196 180)" fill="white"/>
</clipPath>
<clipPath id="clip2_56_250">
<rect width="110" height="50" rx="8" transform="matrix(-1 0 0 1 196 70)" fill="white"/>
</clipPath>
</defs>
</svg>
